<?xml version="1.0" encoding="UTF-8" standalone="no"?>
<!DOCTYPE svg PUBLIC "-//W3C//DTD SVG 1.1//EN"
 "http://www.w3.org/Graphics/SVG/1.1/DTD/svg11.dtd">
<!-- Generated by graphviz version 2.43.0 (0)
 -->
<!-- Title: Perl Pages: 1 -->
<svg width="246pt" height="191pt"
 viewBox="0.00 0.00 246.00 191.00" xmlns="http://www.w3.org/2000/svg" xmlns:xlink="http://www.w3.org/1999/xlink">
<g id="graph0" class="graph" transform="scale(1 1) rotate(0) translate(4 187)">
<title>Perl</title>
<polygon fill="white" stroke="transparent" points="-4,4 -4,-187 242,-187 242,4 -4,4"/>
<!-- Adult -->
<g id="node1" class="node">
<title>Adult</title>
<path fill="none" stroke="blue" d="M103.5,-146.5C103.5,-146.5 134.5,-146.5 134.5,-146.5 140.5,-146.5 146.5,-152.5 146.5,-158.5 146.5,-158.5 146.5,-170.5 146.5,-170.5 146.5,-176.5 140.5,-182.5 134.5,-182.5 134.5,-182.5 103.5,-182.5 103.5,-182.5 97.5,-182.5 91.5,-176.5 91.5,-170.5 91.5,-170.5 91.5,-158.5 91.5,-158.5 91.5,-152.5 97.5,-146.5 103.5,-146.5"/>
<text text-anchor="middle" x="119" y="-160.8" font-family="Times,serif" font-size="14.00">Adult</text>
</g>
<!-- Adult::Child1 -->
<g id="node2" class="node">
<title>Adult::Child1</title>
<path fill="none" stroke="blue" d="M12,-73.5C12,-73.5 98,-73.5 98,-73.5 104,-73.5 110,-79.5 110,-85.5 110,-85.5 110,-97.5 110,-97.5 110,-103.5 104,-109.5 98,-109.5 98,-109.5 12,-109.5 12,-109.5 6,-109.5 0,-103.5 0,-97.5 0,-97.5 0,-85.5 0,-85.5 0,-79.5 6,-73.5 12,-73.5"/>
<text text-anchor="middle" x="55" y="-87.8" font-family="Times,serif" font-size="14.00">Adult::Child1</text>
</g>
<!-- Adult::Child1&#45;&gt;Adult -->
<g id="edge1" class="edge">
<title>Adult::Child1&#45;&gt;Adult</title>
<path fill="none" stroke="grey" d="M70.49,-109.69C78.43,-118.5 88.24,-129.37 96.95,-139.04"/>
<polygon fill="grey" stroke="grey" points="94.35,-141.39 103.65,-146.47 99.55,-136.7 94.35,-141.39"/>
</g>
<!-- Adult::Child2 -->
<g id="node3" class="node">
<title>Adult::Child2</title>
<path fill="none" stroke="blue" d="M140,-73.5C140,-73.5 226,-73.5 226,-73.5 232,-73.5 238,-79.5 238,-85.5 238,-85.5 238,-97.5 238,-97.5 238,-103.5 232,-109.5 226,-109.5 226,-109.5 140,-109.5 140,-109.5 134,-109.5 128,-103.5 128,-97.5 128,-97.5 128,-85.5 128,-85.5 128,-79.5 134,-73.5 140,-73.5"/>
<text text-anchor="middle" x="183" y="-87.8" font-family="Times,serif" font-size="14.00">Adult::Child2</text>
</g>
<!-- Adult::Child2&#45;&gt;Adult -->
<g id="edge2" class="edge">
<title>Adult::Child2&#45;&gt;Adult</title>
<path fill="none" stroke="grey" d="M167.51,-109.69C159.57,-118.5 149.76,-129.37 141.05,-139.04"/>
<polygon fill="grey" stroke="grey" points="138.45,-136.7 134.35,-146.47 143.65,-141.39 138.45,-136.7"/>
</g>
<!-- Adult::Child::Grandchild -->
<g id="node4" class="node">
<title>Adult::Child::Grandchild</title>
<path fill="none" stroke="blue" d="M36.5,-0.5C36.5,-0.5 201.5,-0.5 201.5,-0.5 207.5,-0.5 213.5,-6.5 213.5,-12.5 213.5,-12.5 213.5,-24.5 213.5,-24.5 213.5,-30.5 207.5,-36.5 201.5,-36.5 201.5,-36.5 36.5,-36.5 36.5,-36.5 30.5,-36.5 24.5,-30.5 24.5,-24.5 24.5,-24.5 24.5,-12.5 24.5,-12.5 24.5,-6.5 30.5,-0.5 36.5,-0.5"/>
<text text-anchor="middle" x="119" y="-14.8" font-family="Times,serif" font-size="14.00">Adult::Child::Grandchild</text>
</g>
<!-- Adult::Child::Grandchild&#45;&gt;Adult::Child1 -->
<g id="edge3" class="edge">
<title>Adult::Child::Grandchild&#45;&gt;Adult::Child1</title>
<path fill="none" stroke="grey" d="M103.51,-36.69C95.57,-45.5 85.76,-56.37 77.05,-66.04"/>
<polygon fill="grey" stroke="grey" points="74.45,-63.7 70.35,-73.47 79.65,-68.39 74.45,-63.7"/>
</g>
<!-- Adult::Child::Grandchild&#45;&gt;Adult::Child2 -->
<g id="edge4" class="edge">
<title>Adult::Child::Grandchild&#45;&gt;Adult::Child2</title>
<path fill="none" stroke="grey" d="M134.49,-36.69C142.43,-45.5 152.24,-56.37 160.95,-66.04"/>
<polygon fill="grey" stroke="grey" points="158.35,-68.39 167.65,-73.47 163.55,-63.7 158.35,-68.39"/>
</g>
</g>
</svg>
